<?xml version="1.0" encoding="UTF-8" standalone="no"?>
<svg
   style="height: 512px; width: 512px;"
   viewBox="0 0 512 512"
   version="1.1"
   id="svg1"
   sodipodi:docname="bush.svg"
   inkscape:export-filename="bush.png"
   inkscape:export-xdpi="96"
   inkscape:export-ydpi="96"
   inkscape:version="1.4.2 (f4327f4, 2025-05-13)"
   xmlns:inkscape="http://www.inkscape.org/namespaces/inkscape"
   xmlns:sodipodi="http://sodipodi.sourceforge.net/DTD/sodipodi-0.dtd"
   xmlns="http://www.w3.org/2000/svg"
   xmlns:svg="http://www.w3.org/2000/svg">
  <defs
     id="defs1" />
  <sodipodi:namedview
     id="namedview1"
     pagecolor="#505050"
     bordercolor="#eeeeee"
     borderopacity="1"
     inkscape:showpageshadow="0"
     inkscape:pageopacity="0"
     inkscape:pagecheckerboard="0"
     inkscape:deskcolor="#505050"
     inkscape:zoom="0.77704829"
     inkscape:cx="237.43698"
     inkscape:cy="357.12066"
     inkscape:current-layer="g1" />
  <g
     class=""
     transform="matrix(-1,0,0,1,511.98068,0)"
     id="g1">
    <path
       d="M 59.88,52.08 C 53.05,52.19 47.71,53.95 43.89,57.42 19.35,79.67 15.6,117.7 26.63,158 c 9.74,35.6 31.13,71.9 56.99,96.9 0.846039,25.70262 -14.295029,34.59532 -30.33,53.8 0,0 -13.04,12.6 -17.91,18.9 -13.01,16.8 -17.27,31.4 -9.21,46.8 6.62,12.8 17.27,20.9 31.47,26 14.19,5.1 31.84,6.8 50.56,5.8 23,-1.3 47.5,-6.7 69.5,-13.9 0,0 21.45543,-9.45971 32.91868,-10.18707 C 223.51358,381.29473 248.8,388.8 248.8,388.8 c 19.31242,3.38237 37.7,15.8 58.3,22.3 19.84214,6.26087 25.88146,-2.93067 38.35042,-0.11222 11.95533,2.70236 14.91287,13.95829 33.14958,15.91222 19.6,2.1 38.53515,5.95817 55.54255,3.82548 14.18805,-1.77915 27.43781,-4.58858 37.99402,-12.25373 10.75227,-7.80752 18.07667,-30.24997 18.76343,-35.17175 0.6,-4.3 0.4,-9.3 -0.5,-14.9 -1.9,-11.9 -6.9,-25.7 -12.9,-38.6 -6.2,-13.4 -9.77654,-24.50332 -14.14635,-33.85772 L 449.73436,266.7876 461.8,243.5 c 3.53748,-6.82761 5.6,-15.4 8.2,-24.1 9,-29.4 14.1,-64.1 6.2,-81.4 -4.7,-10.3 -11.9,-20.1 -20.7,-28.8 L 439.1,95.57 C 415.2,78.49 385,68.11 358.5,69.57 348.1,70.13 329.8,82.22 315.7,95.19 301.6,108.2 291.2,121 291.2,121 l -6.6,8.1 -7,-7.7 c 0,0 -9.4,-10.3 -21.9,-20.7 C 243.2,90.26 227,80.58 218.5,80.1 c -4.3,-0.24 -15.8,4.57 -24.7,10.46 -9,5.9 -16,11.94 -16,11.94 l -5.6,4.9 -5.8,-4.6 c 0,0 -24.3,-18.72 -52.6,-33.46 C 99.72,61.98 84.6,55.71 71.83,53.26 68.64,52.64 65.67,52.27 62.9,52.13 c -0.52,0 -1.03,0 -1.53,-0.1 H 59.88 Z M 154.2,417.6 c -7.5,1.7 -15.1,3.1 -22.8,4.3 -5.5,21.6 -12.4,45.8 -29.8,68.3 h 86.5 c -17.5,-22 -28.5,-48 -33.9,-72.6 z m 171.69722,8.51641 c 8.2,6.6 18.4,10.8 27.2,9.9 0.8,-0.1 1.7,-0.2 2.5,-0.4 2.9,11.9 3.8565,43.48359 10.9565,55.58359 h -79.5 c 14.6,-10.6 27.9435,-41.68359 34.2435,-54.18359 1.8,-3.6 3.3,-7.3 4.6,-10.9 z"
       fill="#fff"
       fill-opacity="1"
       id="path1"
       style="fill:#ffffff;fill-opacity:1"
       sodipodi:nodetypes="ccccccccccssssssssccscsccccccccccccccccccccccccccccccccc" />
  </g>
</svg>
